<svg width="26" height="28" viewBox="0 0 26 28" fill="none" xmlns="http://www.w3.org/2000/svg">
<path d="M11.2581 2.36868C11.9998 1.75061 13.0771 1.75061 13.8188 2.36868L21.6711 8.91227C22.6306 9.71187 22.6306 11.1856 21.6711 11.9852L13.8188 18.5288C13.0771 19.1468 11.9998 19.1468 11.2581 18.5288L3.40578 11.9852C2.44627 11.1856 2.44627 9.71186 3.40578 8.91228L11.2581 2.36868Z" stroke="#8D8D8D" stroke-width="2"/>
<path d="M11.2581 8.63791C11.9998 8.01983 13.0771 8.01983 13.8188 8.63791L21.6711 15.1815C22.6306 15.9811 22.6306 17.4548 21.6711 18.2544L13.8188 24.798C13.0771 25.4161 11.9998 25.4161 11.2581 24.798L3.40578 18.2544C2.44627 17.4548 2.44627 15.9811 3.40578 15.1815L11.2581 8.63791Z" stroke="#8D8D8D" stroke-width="2"/>
</svg>
